<?xml version="1.0" encoding="utf-8"?>
<!-- Generator: Adobe Illustrator 27.9.0, SVG Export Plug-In . SVG Version: 6.00 Build 0)  -->
<svg version="1.1" id="Layer_1" xmlns="http://www.w3.org/2000/svg" xmlns:xlink="http://www.w3.org/1999/xlink" x="0px" y="0px"
	 viewBox="0 0 24 24" style="enable-background:new 0 0 24 24;" xml:space="preserve">
<style type="text/css">
	.st0{fill:#222222;}
</style>
<path class="st0" d="M7.5,7L8,9h15.1L24,7H7.5z M21.5,13H9.2l-0.6-2h13.7C22.3,11,21.5,13,21.5,13z M15.5,18c0.8,0,1.5,0.7,1.5,1.5
	c0,0.8-0.7,1.5-1.5,1.5c-0.8,0-1.5-0.7-1.5-1.5C14,18.7,14.7,18,15.5,18z M4.2,3l3.4,12h13l-0.8,2H6.1L2.7,5H0.7L0,3H4.2z M10.5,18
	c0.8,0,1.5,0.7,1.5,1.5S11.3,21,10.5,21S9,20.3,9,19.5C9,18.7,9.7,18,10.5,18z"/>
</svg>
