<?xml version="1.0" encoding="UTF-8"?>
<svg id="Layer_2" data-name="Layer 2" xmlns="http://www.w3.org/2000/svg" viewBox="0 0 200.89 40.22">
  <defs>
    <style>
      .cls-1 {
        fill: #070707;
        stroke-width: 0px;
      }
    </style>
  </defs>
  <g id="Layer_1-2" data-name="Layer 1">
    <g>
      <path class="cls-1" d="m4.45,38.09c-2.06-1.86-2.4-4.46-3.58-6.76-.73-1.42-.29-3.09.15-4.61.25-.93,1.13-1.57,2.01-1.42.83.05,1.76.93,1.91,1.71.05.64,0,1.32,0,1.96,0,3.04.78,5.68,3.72,7.15,1.62.98,2.79.54,3.58-1.18.69-1.76.69-3.48.05-5.19-1.23-3.18-3.23-5.88-5.68-8.28-2.16-2.2-3.82-4.7-5.14-7.4-.34-.83-.59-1.62-1.08-2.3C-.4,10.26-.2,4.82,3.08,2.67,4.94,1.49,6.8.61,8.81.02c.24-.05.54,0,.83.05,3.09.64,5.29,2.35,6.47,5.39.29.73.39,1.52.29,2.35-.15,1.76-.88,2.25-2.65,1.96-.78-.15-1.13-.59-1.27-1.23-.15-.44-.15-.98-.2-1.47-.2-1.47-1.18-2.45-2.5-3.14-.78-.34-1.62-.15-1.96.69-.49.88-.83,1.86-.54,3.04.64,1.96,1.13,4.02,1.86,5.98.54,1.52,1.86,2.79,3.04,4.07.69.73,1.42,1.52,2.01,2.4,1.62,2.65,3.28,5.34,4.12,8.48.39,1.71.88,3.53.25,5.05-1.42,3.48-5.14,5.59-7.4,6.27-2.35.83-4.75-.05-6.71-1.81Z"/>
      <path class="cls-1" d="m25.33,35.59c-1.13-1.71-1.81-3.53-2.45-5.39-.2-.64-.05-1.27-.15-1.86-.29-2.06-.49-4.16-.39-5.68-.1-2.4-.2-4.16.1-5.93.05-.1.1-.25.05-.34-.44-1.96.44-3.63,1.18-5.39.69-1.52,1.76-2.69,3.09-3.77,1.81-1.57,4.02-1.37,6.08-1.76.54-.15,1.03,0,1.47.25.49.29,2.69,2.06,3.58,3.14.78.93,1.62,1.22,2.06,2.25,1.18,2.65,1.42,5.44,1.57,8.28.1.83-.15,1.67-.25,2.45-.39,2.55-.24,5.1-1.08,7.5-1.03,2.89-2.16,5.63-3.87,8.13-.54.83-1.96,1.47-2.99,1.52-3.19.25-6.03-.49-7.99-3.38Zm3.38-8.92c-.2,2.45.54,4.75.93,7.1.2,1.08.88,1.86,1.67,2.6.83.73,1.86.44,2.65-.25,1.08-.88,1.18-1.71,1.57-2.69l1.57-4.41c1.42-2.84,1.23-5.93,1.52-9.02.2-2.01-.54-3.92-.88-5.88-.44-2.79-2.25-4.61-4.36-6.17-.34-.29-.73-.34-1.13-.29-3.04.64-3.58.54-3.48,3.87,0,.93.1,1.86-.1,2.79-.44,2.35-.44,4.7-.34,7.06.1,1.76.54,3.53.39,5.29Z"/>
      <path class="cls-1" d="m46.88,36.33c0-2.16.1-4.31-.1-6.47-.2-1.27.1-2.55.15-3.82-.05-2.3-.1-4.61.1-6.86.2-1.96,0-4.02.1-5.98.05-1.67-.05-2.79-.05-4.51,0-1.81.88-2.79,2.69-3.14.44-.1.88-.25,1.23-.25,1.13,0,1.76.34,1.86,1.62.1,1.13.05,7.3-.1,9.55-.25,3.58-.25,7.15-.15,10.68.05,2.11-.25,4.12-.2,6.32,0,1.47-.2,3.04.54,3.04,2.5,0,4.02-.05,6.03,0,.34.05.78-.15,1.18-.15.69.05,1.47.73,1.52,1.03.05.73-.44,1.18-1.03,1.42-1.18.34-2.3.39-3.53.29-2.3-.25-4.65-.25-6.96.15-2.06.25-3.33-.88-3.28-2.94Z"/>
      <path class="cls-1" d="m78.24,39.17c-1.13-.15-1.57-.73-1.76-1.76-.15-1.37-.98-2.55-1.08-3.97,0-.39-.39-.59-.74-.59-1.71,0-3.48,0-5.1.39-1.23.39-1.71,1.47-1.86,2.6-.2,1.13-.69,1.96-1.32,2.79-.73.69-1.57.49-1.91-.44-.05-.2-.1-.44-.15-.78.15-.59.15-1.37.39-2.06.93-2.79,1.47-5.63,2.11-8.52.34-1.71.64-3.48,1.23-5.14.34-1.13.49-2.25.73-3.38.25-1.57.59-3.14,1.03-4.65.54-1.37.93-2.74,1.03-4.16.15-1.27.69-2.2,1.91-2.84.73-.34,1.18-.29,1.76.05,1.13.64,1.71,1.67,2.06,2.89,1.37,4.75,2.25,9.55,3.04,14.45.49,3.23,1.32,6.52,1.62,9.8q.1.69.39,2.01c.39,1.71.49,2.79.49,2.89.05.64-2.11.93-2.89.73-.34-.05-.64-.24-.98-.29Zm-8.13-8.08c1.42.44,2.65-.2,3.97-.44.78-.05.93-.59.69-1.27-.64-1.23-.73-2.6-.83-4.02-.1-2.01-.54-3.97-1.03-5.93-.2-.64-.2-1.32-.88-2.21-1.18,4.41-2.01,8.53-2.65,12.69-.1.69.1.93.73,1.18Z"/>
      <path class="cls-1" d="m88.39,35.84c-1.52-3.33-2.5-6.76-2.65-10.53-.05-1.62,0-3.23-.34-4.85-.1-.54,0-1.18.05-1.71.54-4.16,1.52-8.18,3.38-11.96.59-1.13,1.13-2.2,1.91-3.18,1.67-2.35,5.34-3.67,8.13-2.94.05,0,.1.05.15.05,4.41.74,5.1,3.63,5.63,7.45.05.34,0,.59-.05.83-.25.93-.69,1.42-1.37,1.42-1.03-.1-1.81-.69-2.01-1.62,0-.15.05-.25.05-.34.1-3.04-1.96-4.7-4.9-4.85-.78-.05-1.23.2-1.71.73-1.67,1.67-2.2,3.72-2.11,6.57-.05.59-.05,1.62-.15,2.65-.44,3.63-.15,7.25-.34,10.88-.05,2.5,0,4.95.2,7.4.15,1.27.29,2.45.93,3.53.69,1.08,1.27,1.23,2.55.83,2.11-.88,3.58-2.6,4.51-4.65.88-2.06,1.62-4.31,1.86-6.61.15-1.42-.1-1.86-1.42-1.91-.78-.05-1.67.05-2.5.2-.44.05-.93.1-1.32-.05-.59-.2-.88-.54-.98-1.08-.05-.64.1-1.03.69-1.32.93-.44,1.71-.88,2.94-.69.88.15,1.91-.15,2.84-.2.88,0,1.71,0,2.55.29,1.08.44,1.57,1.08,1.27,2.16-.78,2.79-1.13,5.73-2.25,8.43-.25.59-.54,1.18-.78,1.81-1.03,2.6-3.19,4.26-5,6.17-4.07,1.67-7.74,1.81-9.75-2.89Z"/>
      <path class="cls-1" d="m125.38,38.92c-.69-2.35-.05-.59-.98-3.38-.88-2.74-1.67-5.54-2.6-8.23-.34-1.13-.73-2.2-.93-3.38-.1-1.03-.54-1.22-1.47-.78-.34.2-.64.44-1.03.54-.49.1-1.13-.1-1.37.39-.15.44,0,.98-.1,1.52-.25,1.81-.05,3.67-.2,5.59-.2,1.91-.29,3.92.15,5.78.2.83.15,1.22.15,1.76,0,.69-1.32.69-2.01.64-1.08-.2-1.76,0-2.79-.25-.39-.05-.49-1.57-.49-2.01.05-.98.05-1.96.05-2.99.29-1.91,0-3.87.1-5.83.1-2.84.24-5.73-.1-8.57-.25-2.06-.44-4.12-.2-6.17.1-.98.05-2.01-.1-2.99-.2-1.23-.59-3.43,0-4.56.44-.93,1.52-.29,2.4-.34,1.03-.05,2.06-.25,3.14,0,.73.15,1.52.2,2.3.29,3.48.34,5.98,2.35,6.91,5.68.25.93.78,1.81.78,2.74,0,1.62.1,3.09-.93,4.36-.49.54-.78,1.23-1.37,1.67-.29.24-.49.59-.29.88.44,1.08.29,2.35.83,3.38.15.24.34.49.39.69.73,2.35,2.06,8.38,2.94,10.09.73,1.37.88,2.01.88,3.48,0,.69-1.08.73-1.67.59-.93-.2-2.11.34-2.4-.59Zm-8.23-20.92c0,.34-.05.69,0,.98.15,1.57.64,1.81,2.11,1.42,1.67-.44,2.94-1.52,4.07-2.65.78-.83.78-1.71.78-2.89,0-.64-.34-1.27-.39-1.96-.2-1.67-1.18-3.09-2.74-3.92-.93-.54-2.06-.74-3.09-.83-1.32-.1-1.67.24-1.37,1.57.59,2.69.29,5.54.64,8.28Z"/>
      <path class="cls-1" d="m145.67,39.17c-1.13-.15-1.57-.73-1.76-1.76-.15-1.37-.98-2.55-1.08-3.97,0-.39-.39-.59-.74-.59-1.71,0-3.48,0-5.1.39-1.23.39-1.71,1.47-1.86,2.6-.2,1.13-.69,1.96-1.32,2.79-.73.69-1.57.49-1.91-.44-.05-.2-.1-.44-.15-.78.15-.59.15-1.37.39-2.06.93-2.79,1.47-5.63,2.11-8.52.34-1.71.64-3.48,1.23-5.14.34-1.13.49-2.25.73-3.38.25-1.57.59-3.14,1.03-4.65.54-1.37.93-2.74,1.03-4.16.15-1.27.69-2.2,1.91-2.84.73-.34,1.18-.29,1.76.05,1.13.64,1.71,1.67,2.06,2.89,1.37,4.75,2.25,9.55,3.04,14.45.49,3.23,1.32,6.52,1.62,9.8q.1.69.39,2.01c.39,1.71.49,2.79.49,2.89.05.64-2.11.93-2.89.73-.34-.05-.64-.24-.98-.29Zm-8.13-8.08c1.42.44,2.65-.2,3.97-.44.78-.05.93-.59.69-1.27-.64-1.23-.73-2.6-.83-4.02-.1-2.01-.54-3.97-1.03-5.93-.2-.64-.2-1.32-.88-2.21-1.18,4.41-2.01,8.53-2.65,12.69-.1.69.1.93.74,1.18Z"/>
      <path class="cls-1" d="m157.62,38.87c-1.13-.15-1.42-.44-1.47-1.47-.05-2.6,0-5.14,0-7.74h-.05c0-1.96,0-3.97-.05-5.93,0-.73,0-1.47.1-2.25.15-1.37-.05-2.69-.15-4.02-.1-2.45.05-4.9.2-7.35,0-.83-.15-1.03-1.03-.73-1.03.29-2.21.44-3.23.54-1.18.05-1.62-.78-1.13-1.71.34-.59.88-.93,1.52-1.13.69-.2,1.32-.44,1.96-.78,1.62-.69,3.23-.73,4.95-.34,1.62.34,3.38.34,5.1.69.54.1,1.22-.34,1.81-.44,1.13-.25,1.57-.05,1.81.78.39,1.23.15,1.81-.83,2.3-.69.34-1.42.34-2.2.29-.83-.05-1.62-.2-2.45-.25-.73-.1-.98.2-.83.93.73,3.28.15,6.52.25,9.75,0,1.42.24,2.94-.1,4.31-.25,1.08-.29,2.11-.34,3.14-.1.88.05,1.76.1,2.65,0,.05.05.1.05.15-.15,2.06.05,4.02.2,6.03.1.49-.05.93-.2,1.37-.34,1.13-1.32,1.71-2.4,1.52l-1.57-.29Z"/>
      <path class="cls-1" d="m172.91,37.85c-.29-.1-.49-.39-.54-.73,0-.54-.15-.98-.2-1.52-.05-3.28-.39-6.57-.15-9.8.05-.54,0-1.13,0-1.71-.34-2.65.05-5.29.1-7.94.05-1.81,0-3.67,0-5.49-.05-1.62-.44-3.63.54-4.65.73-.69,3.04.05,3.92.15.78.1,1.47,1.22,1.37,2.25-.24,2.16,0,4.36-.1,6.52-.2,2.06-.54,4.07-.29,6.12.15,2.01-.25,3.97-.2,6.03.05,3.04.05,5.98.15,9.02.05,1.96-.93,2.79-2.89,2.45-.64-.1-1.18-.39-1.71-.69Z"/>
      <path class="cls-1" d="m197.02,39.17c-1.13-.15-1.57-.73-1.76-1.76-.15-1.37-.98-2.55-1.08-3.97,0-.39-.39-.59-.74-.59-1.71,0-3.48,0-5.1.39-1.23.39-1.71,1.47-1.86,2.6-.2,1.13-.69,1.96-1.32,2.79-.73.69-1.57.49-1.91-.44-.05-.2-.1-.44-.15-.78.15-.59.15-1.37.39-2.06.93-2.79,1.47-5.63,2.11-8.52.34-1.71.64-3.48,1.23-5.14.34-1.13.49-2.25.73-3.38.25-1.57.59-3.14,1.03-4.65.54-1.37.93-2.74,1.03-4.16.15-1.27.69-2.2,1.91-2.84.73-.34,1.18-.29,1.76.05,1.13.64,1.71,1.67,2.06,2.89,1.37,4.75,2.25,9.55,3.04,14.45.49,3.23,1.32,6.52,1.62,9.8q.1.69.39,2.01c.39,1.71.49,2.79.49,2.89.05.64-2.11.93-2.89.73-.34-.05-.64-.24-.98-.29Zm-8.13-8.08c1.42.44,2.65-.2,3.97-.44.78-.05.93-.59.69-1.27-.64-1.23-.73-2.6-.83-4.02-.1-2.01-.54-3.97-1.03-5.93-.2-.64-.2-1.32-.88-2.21-1.18,4.41-2.01,8.53-2.65,12.69-.1.69.1.93.74,1.18Z"/>
    </g>
  </g>
</svg>