<?xml version="1.0" encoding="UTF-8"?>
<svg id="Layer_2" data-name="Layer 2" xmlns="http://www.w3.org/2000/svg" viewBox="0 0 132.76 29.64">
  <defs>
    <style>
      .cls-1 {
        stroke-width: 0px;
      }
    </style>
  </defs>
  <g id="Layer_1-2" data-name="Layer 1">
    <g>
      <path class="cls-1" d="m.94,24.14c-.59.23-.78-.47-.94-.82.59.04.66.51.94.82ZM10.57.47c.86.23,1.48.7,1.75,1.64l.7,2.22c.23.62,0,1.21-.08,1.79-.04.27-.43.27-.58.55-.16.39-.43.74-.62,1.13-.23-.08-.19-.35-.35-.47-.27.08-.12.43-.35.55-.04.04-.08.04-.12-.04-.62-.82-.98-1.72-.78-2.77.12-.55.04-1.05-.12-1.6-.19-.74-1.21-1.64-1.91-1.37-.39.12-.78.31-1.17.47-.43.19-.66.62-.86,1.01-.19.39-.35,1.09-.58,1.44-.39.43-.39,1.56.08,1.91,1.17.98,1.95,2.26,2.85,3.39.7.94,1.56,1.68,2.42,2.42.7.66,1.36,1.4,1.91,2.22.19.31.47.66.74.94.94.9.9,2.14,1.25,3.32.23.82.16,1.68.2,2.54,0,.39-.04.82-.47,1.05-.23.12-.19.31-.23.51-.19,1.01-.62,1.95-1.17,2.81-.23.35-.55.66-.98.7-.2.04-.31.16-.43.27-.39.51-.98.82-1.52,1.09-.16.08-.31.2-.47.12-.47-.2-.86,0-1.25.2-1.17.66-3.12.16-4.8-.86-.16-.12-2.46-2.3-2.54-2.42-.82-1.13,1.25.94.47-.27-.16-.27-.35-.74-.31-1.09,0-.47-.39-.7-.58-1.05-.08-.16-.27-.23-.31-.47.16-.12.55-.31.78-.08.31.35.39.16.62.27.23.16.27.23.58.47.43.35.51.7.78,1.01.39.55.82.66,1.4.94,1.37.55,2.73,1.72,3.94.47.74-.78.9-1.6.9-2.57-.04-1.01-.23-1.95-.47-2.89-.04-.23-.16-.43-.27-.59-1.48-2.07-2.69-3.82-4.56-5.46-.98-.78-2.15-2.15-2.5-3.36-.16-.62-.55-1.17-.62-1.79-.04-.35-.08-.7.04-1.01.31-1.09.47-2.26.9-3.32.59-1.52,1.64-2.61,2.96-3.51.39-.27.82-.35,1.33-.27.7.12,1.36-.16,2.07-.23.78-.08,1.56-.12,2.34.04Zm-4.17,13.96c.12-.04-.31-.86-.58-1.17-.39-.55-.82-.7-.9-.97-.55-.35-.98-.86-1.6-1.01.7,1.17,2.11,2.38,3.08,3.16Z"/>
      <path class="cls-1" d="m22.81,11.58c0,.2-.23.31-.23.55.31.04.7.31.78-.31,0-.12.16-.08.23-.12,1.13-.12,2.03.39,2.93.98.04,0,.12.08.12.16.27.66.78,1.13,1.25,1.68.51.62.55,1.4.78,2.11.08.39.12.78.16,1.17,0,.82.19,1.64.31,2.46.08.74.2,1.48-.23,2.18-.16.27-.23.66-.23.97.04.9-.27,1.64-.7,2.38-.35.66-.7,1.25-1.09,1.91-.31.51-.86.62-1.37.82-.62-.66.31-.62.39-.97-.23-.12-.47.04-.62.12-.62.39-1.33.58-1.95.9-.51.27-1.01.27-1.56-.04-.82-.47-1.6-1.05-2.3-1.68-.82-.78-1.37-1.79-1.68-2.92-.35-1.52-.27-3-.19-4.53,0-1.44.35-2.85.78-4.21.51-1.44,1.25-2.57,2.69-3.16.31-.12.58-.31.86-.47.31-.16.58-.16.9.04Zm-.2,1.95c-.12.55-.39,1.01-.51,1.56-.16.54-.35,1.05-.27,1.68.04.78.16,1.6.04,2.38-.08.58-.12,1.13-.04,1.68,0,.43.04.9,0,1.33-.12,1.44.16,2.81.94,4.06.08.16.12.35.35.27.55-.19.66.23.82.62.35-.08.58-.27.66-.47.74-.86,1.05-1.87,1.17-2.92.16-1.6.23-3.2.27-4.8l-.08-3.28c-.04-.82-.35-1.56-1.01-2.07-.35-.27-.7-.43-1.09-.2-.39.2-.82.23-1.25.16Zm2.22,15.41c.16-.04.27-.16.2-.35-.04-.2-.16-.12-.35-.08-.12.08-.23.08-.35.31.16.08.35.12.51.12Z"/>
      <path class="cls-1" d="m33.85,2.77c.31.55.55,1.13.62,1.75.04.47,0,.94.35,1.4.12-.62-.16-1.21,0-1.75.27-.04.43.16.39.35,0,.66.35,1.21.51,1.79.47,1.68.39,3.43.51,6.32.08,1.56-.12,3.55-.16,5.07-.04,1.52-.16,3.04.08,4.56.16.82.12,1.64.19,2.46.04.82-.08,1.6.23,2.38.55-.16.58-.12,1.01-.43.12-.08.12.16,1.13-.47.39-.23.9-.43,1.01-.55.62-.62,1.64-1.01,2.42-1.52.23-.12.51-.2.82-.04-.74.94-1.48,1.75-2.54,2.34-1.05.62-1.29.94-2.26,1.6-1.13.78-.82.39-2.15.66-1.99.43-3.55-.78-3.9-2.54-.31-1.68-.43-3.35-.39-5.07.04-1.99.39-3.98.27-5.97-.16-2.77-.08-6.24-.04-8.5.04-1.21-.08-2.38-.16-3.59,0-.2-.2-.51.04-.58.35-.16.62-.55,1.05-.35.39.12.7.31.94.66Zm1.4,24.49c.12.2.31.23.51.08-.04-.35-.12-.97-.31-1.37-.35.35-.35.97-.19,1.29Z"/>
      <path class="cls-1" d="m50.86,12.75c.62.66.9,1.4.66,2.26v.23c.23,1.01.16,1.75,0,2.81-.08.31.08.62.08.94.04,1.33.12,2.69.04,4.02,0,.51-.19,1.36-.23,1.87-.04.39.08.94.19,1.33.59.08.94-.12,1.4-.51,1.33-.47,2.89-2.22,3.55-2.61.04.47-.16,1.01-.66,1.64-.39.43-1.56,1.33-1.99,1.72-.58.51-1.4,1.05-2.07,1.44-.7.47-1.44.66-2.57.62-.39,0-.58-.35-.78-.62-.19-.35-.35-.58-.58-.86-.19,0-.31.12-.39.23-.08.12-.2.31-.31.31-.51.04-.62.43-1.17.66-.58.23-.82,0-1.4.04-.23,0-.43.16-.04.16.9,0-.16.31-1.33.23-.55-.04-1.72-.35-2.03-.74-.86-1.09-1.05-1.37-1.09-2.3l-.08-1.52c-.08-1.52.51-2.57,1.17-3.43.78-1.05,1.75-1.64,3.04-1.95.62-.2,1.29-.27,1.87-.59.43-.19.78.16,1.25,0,.16-1.05,0-2.96-.08-4.02,0-.62-.19-.78-.78-.55-1.17.47-1.95.62-3.24.66-.12.04-.27,0-.35.08-.78.55-1.29-.23-1.91-.27-.04-.27.08-.27.16-.27,1.01-.27,2.03-.66,2.69-.74.86-.12,1.52-.51,2.34-.78.39-.12.55-.2.94-.27.47-.04.86.04,1.25.27.39.2.74.47,1.21.43.12-.27-.08-.27-.31-.43-.31-.04-.47-.27-.2-.27.59,0,1.33.35,1.76.78Zm-9.71,13.96c.27.16.35.47.58.62.27.16.39.55.9.51-.43-.51-.86-.94-1.13-1.48-.08-.16-.39-.7-.39-.16,0,.2-.19.39.04.51Zm5.73-7.25c-.16.2-.2.31-.39.31-.12,0-.19-.04-.43.16-.39.31-.43.43-.82.7-.39.27-.7.62-.86,1.05-.7,1.72-.55,3.74.04,4.29.43.39.66.74,1.17.55.35-.12,1.21-.62,1.56-.74.23-.08.27-.35.27-.62,0-.2-.04-.43,0-.7.08-.7-.23-1.33-.08-2.5.08-.54-.08-1.01.04-1.56.12-.47.04-.7.04-1.21-.16.04-.47.16-.55.27Z"/>
      <path class="cls-1" d="m63.76.78c.7.04,1.29.08,1.83-.12.39-.12.74-.08,1.13-.04.58.08,1.09.27,1.52.59.62.39,1.01,1.05,1.05,1.79.08.74,0,1.48-.12,2.22l-.12,1.21c-.04.19-.04.39-.16.47-.51.31-.39.86-.62,1.33-.23,0-.47-.12-.7,0-.62.23-1.17-.08-1.4-.74-.12-.27-.12-.59-.12-.86-.08-.9-.12-1.79-.16-2.73-.04-.47-.19-.94-.27-1.4-.04-.31-.23-.51-.51-.59-1.17-.39-2.34.04-2.89,1.13-.39.82-.86,1.6-1.09,2.46-.35,1.33-.7,2.65-.55,4.06.12,1.01,0,2.03.04,3,0,.82.08,1.6.04,2.42-.12,2.42.55,4.84.55,7.29,0,.12.04.23.04.35-.39,1.21.19,2.18.7,3.2.31.62.47.66,1.09.35.98-.51,1.64-1.21,2.73-1.56.23-.08.35-.23.35-.51-.08-2.34.19-4.72.16-7.06,0-.04,0-.12-.04-.2-.82-.23-1.56-.58-2.46-.47-.39.04-.43-.39-.55-.62.08-.2.23-.23.39-.23,1.05,0,2.07-.39,3.08-.51h.16c.43-.55.58-.16.78.23.04.04.16.04.23.08.23-.35.08-.78.35-1.13.35.04.62.31,1.01.31.23,0,.23.23.23.43.08.74.23,1.48.23,2.22.04.82,0,1.6.08,2.42.16,1.64.04,3.32.12,4.95.08.86.04,1.72.12,2.57.04.82-.27,1.6-1.05,2.07-.12.08-.12.27-.31.31-.74-.78-1.21-1.79-1.99-2.54-.31-.27-.27-.74-.43-1.09-.27,0-.39.2-.51.35-.55.66-1.05,1.33-1.91,1.52-.39.55-.82.47-1.33.66-.58.23-1.25.2-1.87.12-.55-.04-1.05-.12-1.6-.2-.78-.12-1.83-.47-2.15-1.48-.19-.66-.39-1.56-.66-2.18-.31-.7-.31-1.44-.31-2.18,0-1.52-.27-2.73-.35-4.21-.04-1.01.16-1.99.23-2.96,0-.43.08-.86.04-1.25-.12-.98.2-1.95.12-2.92-.12-1.37.39-2.61.66-3.94.08-.2.16-.35.19-.55.23-1.72,1.21-3,2.38-4.17.35-.39.86-.7,1.29-1.05.08-.04.16-.08.19-.08,1.13,0,1.95-.82,2.89-1.21.51-.16,1.01-.04,1.6-.12-.31.58-.94.39-1.4.78Zm-7.02,9.24c-.08.94-.16,1.91-.2,2.89,0,.12.04.23.27.23,0-1.17.12-2.34.35-3.47,0-.04-.08-.12-.12-.2-.23.12-.31.31-.31.55Z"/>
      <path class="cls-1" d="m77.26,13.57c0,.08.04.2.08.27,0,.04.04.08.08.16.51-.39.98-.82,1.48-1.21.98-.74,1.83-.9,2.96-.62.62.16,1.25.51,1.72,1.09-.19.39-.55.43-.86.27-.27-.12-.43-.12-.58.08-.27.31-.7.12-.9.55l-.23.19c-1.13.43-1.91,1.05-2.46,2.22-.19.47-.12.9-.43,1.33-.23.27-.31.58-.27,1.01.04.7.08,1.44.08,2.14.04,1.56.2,3.08.23,4.6.04.66,0,1.29,0,1.95,0,.35-.55,1.6-.74,1.79-.51-.62-.94-.66-1.52-.08-.27.27-.43-.08-.62-.04-.16.12,0,.23-.04.35h-.16c-.78-.78-1.13-1.72-1.13-2.85.08-1.64-.08-3.28-.23-4.95-.08-.74-.04-1.44.04-2.18.16-.97.16-1.95.12-2.92,0-.43.08-.86.08-1.29.04-.78,0-1.52-.19-2.26-.08-.12-.08-.31.12-.35.2-.08.2.16.31.23.35-.19.23-.54.23-.86.31-.23.7-.2.94-.51.08-.12.23-.08.35,0,.74.43,1.52.82,1.56,1.87Zm6.04.82s-.12.08-.12.04c-.62-.23-1.09-.16-1.56.12-.27.23-.59.43-1.01.47.12-.31.39-.35.55-.51l.23-.2c.23-.04.39-.23.66-.39.62-.23.86-.16,1.25.47Z"/>
      <path class="cls-1" d="m94.38,12.75c.62.66.9,1.4.66,2.26v.23c.23,1.01.16,1.75,0,2.81-.08.31.08.62.08.94.04,1.33.12,2.69.04,4.02,0,.51-.19,1.36-.23,1.87-.04.39.08.94.2,1.33.58.08.94-.12,1.4-.51,1.33-.47,2.89-2.22,3.55-2.61.04.47-.16,1.01-.66,1.64-.39.43-1.56,1.33-1.99,1.72-.58.51-1.4,1.05-2.07,1.44-.7.47-1.44.66-2.57.62-.39,0-.58-.35-.78-.62-.2-.35-.35-.58-.59-.86-.19,0-.31.12-.39.23-.08.12-.2.31-.31.31-.51.04-.62.43-1.17.66-.58.23-.82,0-1.4.04-.23,0-.43.16-.04.16.9,0-.16.31-1.33.23-.55-.04-1.72-.35-2.03-.74-.86-1.09-1.05-1.37-1.09-2.3l-.08-1.52c-.08-1.52.51-2.57,1.17-3.43.78-1.05,1.75-1.64,3.04-1.95.62-.2,1.29-.27,1.87-.59.43-.19.78.16,1.25,0,.16-1.05,0-2.96-.08-4.02,0-.62-.19-.78-.78-.55-1.17.47-1.95.62-3.24.66-.12.04-.27,0-.35.08-.78.55-1.29-.23-1.91-.27-.04-.27.08-.27.16-.27,1.01-.27,2.03-.66,2.69-.74.86-.12,1.52-.51,2.34-.78.39-.12.55-.2.94-.27.47-.04.86.04,1.25.27.39.2.74.47,1.21.43.12-.27-.08-.27-.31-.43-.31-.04-.47-.27-.19-.27.58,0,1.33.35,1.75.78Zm-9.71,13.96c.27.16.35.47.58.62.27.16.39.55.9.51-.43-.51-.86-.94-1.13-1.48-.08-.16-.39-.7-.39-.16,0,.2-.19.39.04.51Zm5.73-7.25c-.16.2-.2.31-.39.31-.12,0-.2-.04-.43.16-.39.31-.43.43-.82.7-.39.27-.7.62-.86,1.05-.7,1.72-.55,3.74.04,4.29.43.39.66.74,1.17.55.35-.12,1.21-.62,1.56-.74.23-.08.27-.35.27-.62,0-.2-.04-.43,0-.7.08-.7-.23-1.33-.08-2.5.08-.54-.08-1.01.04-1.56.12-.47.04-.7.04-1.21-.16.04-.47.16-.55.27Z"/>
      <path class="cls-1" d="m119.38,23.75c-.27.39-.58.66-.94.94-.55.43-.86.66-1.25,1.29-.19.35-.35.39-.7.43-.23,0-.51.31-.7.47-.23.2-.51.23-.7.43-.16.2-.27.39-.43.51-.19.16-.47.23-.7.31l-.74.23c-.16.08-.35.12-.55.12-.12,0-.23-.04-.35-.04-.16.08-.23.23-.39.27-.16.04-.31-.08-.47-.2-.16-.16-.35-.31-.62-.35-.27-.08-.51-.43-.86-.16-.16.12-.35-.12-.51-.23-.51-.55-.62-1.21-.7-1.91-.9.82-1.25,1.21-1.72,1.72-.47.51-.66.43-1.29.66-.16.04-.39.16-.55.27-.82.66-1.33.78-2.46.7-.23,0-.43-.2-.7.04-.12.12-.23-.08-.31-.2-.16-.31-.27-.62-.43-.94-.08-.19-.12-.39-.39-.27-.16.08-.19,0-.27-.12-.51-.7-.86-1.44-1.01-2.34-.16-1.13-.16-2.26-.16-3.39.04-1.91-.08-3.86.04-5.77.12-1.6.19-3.43.27-5.03,0-.23.08-.51-.08-.82-.55.12-2.11.23-1.99-.08.39-.04,1.09-.27,1.56-.31-.58-.2-1.4.04-1.87.08-.82,0-1.05-.12-1.05-.82.82-.08,2.15-.39,3-.47.27,0,.23-.04.23-.31.04-.43.04-.9,0-1.33-.08-.58.08-1.17.19-1.79.27-.19.12.82.39,1.25.27-.62.23-1.21.16-1.79-.04-.51.08-.86.55-1.13.94.51,1.29,1.44,1.56,2.34.23.78.35,1.75.51,2.61.82-.08,1.56-.08,1.95-.12.31-.04.86-.12,2.11-.12.66,0,2.54-.35,3.16-.35.43,0,1.44-.23,1.79-.12.31.12,1.44-.16,1.75-.16.47,0,1.99.47,1.29.78-.27.12.51.35.7.55-.7,0-1.87.27-1.44.55.19.12-.7.16-1.48.23-.19.04-1.13-.2-3.28-.04-1.05.08-.9.08-1.91.08-.9.04-1.37.04-2.22.16-.19.04-1.37.19-1.68.16-.59-.08-.62.04-.59.62.04,1.44.27,3.08.35,4.49.08,1.21.2,2.42.12,3.59-.04,1.44.23,2.81.35,4.21.04.82.16,1.64.23,2.46.08.59.47.94.9,1.25.12.12.23.12.39.04l.78-.39c1.13-.62,1.21-.86,1.87-1.4.16-.16.35-.23.55-.35,0-.74,0-1.52.04-2.26.04-1.25.08-2.54.19-3.78.12-1.09.19-2.18.12-3.28-.08-.78.2-1.56,0-2.38-.04-.27.27-.58.47-.74.35-.31.82-.47,1.29-.51.82-.08,1.17.35,1.36,1.13.04.12.04.27.16.35.43-.31.55-.27.55.23.04.2.04.39-.04.58-.12.39-.12.78-.04,1.17.2,1.64.16,3.28.2,4.92.04,1.01.16,1.99.27,3,.04.7.16,1.4.19,2.11.08.78-.12,1.37.62,1.05.82-.39.98-.35,2.03-1.09.35-.23,1.09-.82,1.48-.94.23-.12.43-.23.58-.39.35-.27.74-.55,1.25-.16Zm-15.52,3.04c-.43-.43-.82-1.44-.98-1.44-.08,0,.23,1.09.23,1.17,0,.16.2.12.23.23.12.27,1.01.55.51.04Zm4.95-25.23c.39-.55.98-.86,1.68-.98.47-.04.62.08.62.51-.04.35.12.47.43.74.82.74,1.05,1.44.2,2.15-.39.27-.66.82-1.29.7-.27-.27-.7-.04-1.05-.2-1.29-.66-1.48-1.68-.58-2.92Z"/>
      <path class="cls-1" d="m127.06,12.75c.62.66.9,1.4.66,2.26v.23c.23,1.01.16,1.75,0,2.81-.08.31.08.62.08.94.04,1.33.12,2.69.04,4.02,0,.51-.19,1.36-.23,1.87-.04.39.08.94.19,1.33.59.08.94-.12,1.4-.51,1.33-.47,2.89-2.22,3.55-2.61.04.47-.16,1.01-.66,1.64-.39.43-1.56,1.33-1.99,1.72-.58.51-1.4,1.05-2.07,1.44-.7.47-1.44.66-2.57.62-.39,0-.58-.35-.78-.62-.19-.35-.35-.58-.58-.86-.19,0-.31.12-.39.23-.08.12-.2.31-.31.31-.51.04-.62.43-1.17.66-.58.23-.82,0-1.4.04-.23,0-.43.16-.04.16.9,0-.16.31-1.33.23-.55-.04-1.72-.35-2.03-.74-.86-1.09-1.05-1.37-1.09-2.3l-.08-1.52c-.08-1.52.51-2.57,1.17-3.43.78-1.05,1.75-1.64,3.04-1.95.62-.2,1.29-.27,1.87-.59.43-.19.78.16,1.25,0,.16-1.05,0-2.96-.08-4.02,0-.62-.19-.78-.78-.55-1.17.47-1.95.62-3.24.66-.12.04-.27,0-.35.08-.78.55-1.29-.23-1.91-.27-.04-.27.08-.27.16-.27,1.01-.27,2.03-.66,2.69-.74.86-.12,1.52-.51,2.34-.78.39-.12.55-.2.94-.27.47-.04.86.04,1.25.27.39.2.74.47,1.21.43.12-.27-.08-.27-.31-.43-.31-.04-.47-.27-.2-.27.59,0,1.33.35,1.76.78Zm-9.71,13.96c.27.16.35.47.58.62.27.16.39.55.9.51-.43-.51-.86-.94-1.13-1.48-.08-.16-.39-.7-.39-.16,0,.2-.19.39.04.51Zm5.73-7.25c-.16.2-.2.31-.39.31-.12,0-.19-.04-.43.16-.39.31-.43.43-.82.7-.39.27-.7.62-.86,1.05-.7,1.72-.55,3.74.04,4.29.43.39.66.74,1.17.55.35-.12,1.21-.62,1.56-.74.23-.08.27-.35.27-.62,0-.2-.04-.43,0-.7.08-.7-.23-1.33-.08-2.5.08-.54-.08-1.01.04-1.56.12-.47.04-.7.04-1.21-.16.04-.47.16-.55.27Z"/>
    </g>
  </g>
</svg>