<?xml version="1.0" encoding="UTF-8"?>
<svg id="Layer_2" data-name="Layer 2" xmlns="http://www.w3.org/2000/svg" viewBox="0 0 18.87 40.22">
  <defs>
    <style>
      .cls-1 {
        fill: #070707;
        stroke-width: 0px;
      }
    </style>
  </defs>
  <g id="Layer_1-2" data-name="Layer 1">
    <path class="cls-1" d="m4.45,38.09c-2.06-1.86-2.4-4.46-3.58-6.76-.73-1.42-.29-3.09.15-4.61.25-.93,1.13-1.57,2.01-1.42.83.05,1.76.93,1.91,1.71.05.64,0,1.32,0,1.96,0,3.04.78,5.68,3.72,7.15,1.62.98,2.79.54,3.58-1.18.69-1.76.69-3.48.05-5.19-1.23-3.18-3.23-5.88-5.68-8.28-2.16-2.2-3.82-4.7-5.14-7.4-.34-.83-.59-1.62-1.08-2.3C-.4,10.26-.2,4.82,3.08,2.67,4.94,1.49,6.8.61,8.81.02c.24-.05.54,0,.83.05,3.09.64,5.29,2.35,6.47,5.39.29.73.39,1.52.29,2.35-.15,1.76-.88,2.25-2.65,1.96-.78-.15-1.13-.59-1.27-1.23-.15-.44-.15-.98-.2-1.47-.2-1.47-1.18-2.45-2.5-3.14-.78-.34-1.62-.15-1.96.69-.49.88-.83,1.86-.54,3.04.64,1.96,1.13,4.02,1.86,5.98.54,1.52,1.86,2.79,3.04,4.07.69.73,1.42,1.52,2.01,2.4,1.62,2.65,3.28,5.34,4.12,8.48.39,1.71.88,3.53.25,5.05-1.42,3.48-5.14,5.59-7.4,6.27-2.35.83-4.75-.05-6.71-1.81Z"/>
  </g>
</svg>